<svg width="135" height="24" viewBox="0 0 135 24" fill="none" xmlns="http://www.w3.org/2000/svg">
<path fill-rule="evenodd" clip-rule="evenodd" d="M11.9994 6.00003C8.68567 6.00003 5.99938 8.68632 5.99938 12C5.99938 15.3137 8.68567 18 11.9994 18C15.3131 18 17.9994 15.3137 17.9994 12C17.9994 8.68632 15.3131 6.00003 11.9994 6.00003ZM7.99938 12C7.99938 9.79089 9.79024 8.00003 11.9994 8.00003C14.2085 8.00003 15.9994 9.79089 15.9994 12C15.9994 14.2092 14.2085 16 11.9994 16C9.79024 16 7.99938 14.2092 7.99938 12Z" fill="#00545F"/>
<path fill-rule="evenodd" clip-rule="evenodd" d="M14.5012 2.02893C13.1063 0.679484 10.8925 0.679484 9.49757 2.02893C9.14327 2.37168 8.65062 2.53175 8.16252 2.46271C6.24082 2.1909 4.44984 3.49213 4.11451 5.40377C4.02934 5.88931 3.72487 6.30838 3.2894 6.53943C1.57495 7.44907 0.890854 9.55451 1.7432 11.2982C1.95969 11.741 1.95969 12.259 1.7432 12.7019C0.890854 14.4456 1.57495 16.551 3.2894 17.4606C3.72487 17.6917 4.02934 18.1107 4.11451 18.5963C4.44984 20.5079 6.24083 21.8092 8.16252 21.5373C8.65062 21.4683 9.14327 21.6284 9.49757 21.9711C10.8925 23.3206 13.1063 23.3206 14.5012 21.9711C14.8555 21.6284 15.3481 21.4683 15.8362 21.5373C17.7579 21.8092 19.5489 20.5079 19.8843 18.5963C19.9694 18.1107 20.2739 17.6917 20.7094 17.4606C22.4238 16.551 23.1079 14.4456 22.2556 12.7019C22.0391 12.259 22.0391 11.741 22.2556 11.2982C23.1079 9.5545 22.4238 7.44907 20.7094 6.53943C20.2739 6.30838 19.9694 5.88931 19.8843 5.40377C19.5489 3.49213 17.7579 2.1909 15.8362 2.46271C15.3481 2.53175 14.8555 2.37168 14.5012 2.02893ZM10.8882 3.46638C11.5077 2.867 12.491 2.867 13.1106 3.46638C13.9083 4.23805 15.0174 4.59844 16.1163 4.443C16.9699 4.32227 17.7654 4.90023 17.9143 5.74932C18.1061 6.84248 18.7916 7.78598 19.772 8.30615C20.5335 8.71019 20.8373 9.64535 20.4587 10.4198C19.9713 11.4169 19.9713 12.5831 20.4587 13.5802C20.8373 14.3547 20.5335 15.2899 19.772 15.6939C18.7916 16.2141 18.1061 17.1576 17.9143 18.2507C17.7654 19.0998 16.9699 19.6778 16.1163 19.5571C15.0174 19.4016 13.9083 19.762 13.1106 20.5337C12.491 21.1331 11.5077 21.1331 10.8882 20.5337C10.0905 19.762 8.98134 19.4016 7.88242 19.5571C7.02887 19.6778 6.23337 19.0998 6.08443 18.2507C5.89268 17.1576 5.20718 16.2141 4.22678 15.6939C3.46528 15.2899 3.16143 14.3547 3.54001 13.5802C4.02742 12.5831 4.02742 11.4169 3.54001 10.4198C3.16143 9.64535 3.46528 8.71019 4.22678 8.30615C5.20718 7.78598 5.89268 6.84248 6.08443 5.74932C6.23337 4.90024 7.02887 4.32227 7.88242 4.443C8.98134 4.59844 10.0905 4.23805 10.8882 3.46638Z" fill="#00545F"/>
<path d="M33.314 18V5.4H35.258V10.8H40.55V5.4H42.494V18H40.55V12.564H35.258V18H33.314ZM49.3385 18.252C48.4505 18.252 47.6585 18.072 46.9625 17.712C46.2785 17.34 45.7385 16.812 45.3425 16.128C44.9465 15.444 44.7485 14.634 44.7485 13.698V13.428C44.7485 12.492 44.9465 11.688 45.3425 11.016C45.7385 10.332 46.2785 9.804 46.9625 9.432C47.6585 9.06 48.4505 8.874 49.3385 8.874C50.2265 8.874 51.0185 9.06 51.7145 9.432C52.4105 9.804 52.9565 10.332 53.3525 11.016C53.7485 11.688 53.9465 12.492 53.9465 13.428V13.698C53.9465 14.634 53.7485 15.444 53.3525 16.128C52.9565 16.812 52.4105 17.34 51.7145 17.712C51.0185 18.072 50.2265 18.252 49.3385 18.252ZM49.3385 16.596C50.1545 16.596 50.8145 16.338 51.3185 15.822C51.8345 15.294 52.0925 14.568 52.0925 13.644V13.482C52.0925 12.558 51.8405 11.838 51.3365 11.322C50.8325 10.794 50.1665 10.53 49.3385 10.53C48.5345 10.53 47.8745 10.794 47.3585 11.322C46.8545 11.838 46.6025 12.558 46.6025 13.482V13.644C46.6025 14.568 46.8545 15.294 47.3585 15.822C47.8745 16.338 48.5345 16.596 49.3385 16.596ZM57.1213 18L55.6093 9.126H57.4633L58.5793 16.758H58.8673L60.4153 9.126H63.4213L64.9512 16.758H65.2393L66.3553 9.126H68.2093L66.6973 18H63.5833L62.0533 10.386H61.7653L60.2353 18H57.1213ZM74.993 18V9.126H76.847V18H74.993ZM75.929 7.92C75.569 7.92 75.263 7.806 75.011 7.578C74.771 7.338 74.651 7.032 74.651 6.66C74.651 6.288 74.771 5.988 75.011 5.76C75.263 5.52 75.569 5.4 75.929 5.4C76.301 5.4 76.607 5.52 76.847 5.76C77.087 5.988 77.207 6.288 77.207 6.66C77.207 7.032 77.087 7.338 76.847 7.578C76.607 7.806 76.301 7.92 75.929 7.92ZM82.9285 18C82.3885 18 81.9565 17.838 81.6325 17.514C81.3205 17.19 81.1645 16.758 81.1645 16.218V10.692H78.7165V9.126H81.1645V6.192H83.0185V9.126H85.6645V10.692H83.0185V15.894C83.0185 16.254 83.1865 16.434 83.5225 16.434H85.3765V18H82.9285ZM93.3875 18L91.5335 5.4H93.4775L94.9895 16.686H95.2775L97.2215 5.4H100.623L102.567 16.686H102.855L104.349 5.4H106.293L104.439 18H101.037L99.0575 6.552H98.7695L96.8075 18H93.3875ZM112.251 18.252C111.363 18.252 110.571 18.072 109.875 17.712C109.191 17.34 108.651 16.812 108.255 16.128C107.859 15.444 107.661 14.634 107.661 13.698V13.428C107.661 12.492 107.859 11.688 108.255 11.016C108.651 10.332 109.191 9.804 109.875 9.432C110.571 9.06 111.363 8.874 112.251 8.874C113.139 8.874 113.931 9.06 114.627 9.432C115.323 9.804 115.869 10.332 116.265 11.016C116.661 11.688 116.859 12.492 116.859 13.428V13.698C116.859 14.634 116.661 15.444 116.265 16.128C115.869 16.812 115.323 17.34 114.627 17.712C113.931 18.072 113.139 18.252 112.251 18.252ZM112.251 16.596C113.067 16.596 113.727 16.338 114.231 15.822C114.747 15.294 115.005 14.568 115.005 13.644V13.482C115.005 12.558 114.753 11.838 114.249 11.322C113.745 10.794 113.079 10.53 112.251 10.53C111.447 10.53 110.787 10.794 110.271 11.322C109.767 11.838 109.515 12.558 109.515 13.482V13.644C109.515 14.568 109.767 15.294 110.271 15.822C110.787 16.338 111.447 16.596 112.251 16.596ZM119.167 18V9.126H120.985V10.17H121.273C121.417 9.798 121.645 9.528 121.957 9.36C122.281 9.18 122.677 9.09 123.145 9.09H124.207V10.764H123.073C122.473 10.764 121.981 10.932 121.597 11.268C121.213 11.592 121.021 12.096 121.021 12.78V18H119.167ZM126.128 18V5.4H127.982V12.582H128.27L131.762 9.126H134.228L129.746 13.428L134.372 18H131.924L128.27 14.31H127.982V18H126.128Z" fill="#00545F"/>
</svg>
